<svg id="Layer_1" data-name="Layer 1" xmlns="http://www.w3.org/2000/svg" viewBox="0 0 16 16"><defs><style>.cls-1{fill:#2aa580;}.cls-2{fill:#fff;}</style></defs><rect class="cls-1" width="16" height="16" rx="4"/><path class="cls-2" d="M12.39,7.61a.77.77,0,0,1,.77.77h0a4.62,4.62,0,0,1-1.37,3.47,4.88,4.88,0,0,1-3.55,1.33,5.26,5.26,0,0,1-3.84-1.5A5,5,0,0,1,2.88,8,5.16,5.16,0,0,1,8.13,2.78a5.3,5.3,0,0,1,2.56.63,5.17,5.17,0,0,1,1.14.86.83.83,0,0,1-.17,1.31l-.28.16a.76.76,0,0,1-.93-.12,2.72,2.72,0,0,0-.73-.54,3.33,3.33,0,0,0-1.61-.39,3.19,3.19,0,0,0-2.35.94A3.23,3.23,0,0,0,4.84,8a3.11,3.11,0,0,0,.94,2.34,3.35,3.35,0,0,0,2.48.92,3.36,3.36,0,0,0,1.89-.5,2.54,2.54,0,0,0,1-1.4H8.91a.77.77,0,0,1-.77-.77v-.2a.77.77,0,0,1,.77-.77Z"/></svg>