<svg id="Layer_1" data-name="Layer 1" xmlns="http://www.w3.org/2000/svg" viewBox="0 0 427.09 102"><defs><style>.cls-1{fill:#2aa580;}.cls-2{fill:#fff;}</style></defs><path class="cls-1" d="M144.37,72.44a19.8,19.8,0,0,1-10.75-2.82A18.87,18.87,0,0,1,126.7,62a23.12,23.12,0,0,1-2.41-10.6,22.57,22.57,0,0,1,2.48-10.6,19.2,19.2,0,0,1,7-7.6,19.94,19.94,0,0,1,10.7-2.82A20.22,20.22,0,0,1,156,33.66a19.56,19.56,0,0,1,7.16,8.4h-5.08a13.85,13.85,0,0,0-5.18-5.21,15.78,15.78,0,0,0-8-1.92,16.06,16.06,0,0,0-8.56,2.2,14.6,14.6,0,0,0-5.48,5.92,18.09,18.09,0,0,0-1.89,8.37,18.64,18.64,0,0,0,1.85,8.34,14.37,14.37,0,0,0,5.43,5.95,16.94,16.94,0,0,0,15.56.59,13.64,13.64,0,0,0,5.4-4.65,12.66,12.66,0,0,0,2.07-7.32h-15V50.12h19.28V71.94h-4.28V64.69a18.38,18.38,0,0,1-3.34,3.75A16.64,16.64,0,0,1,151,71.32,18.14,18.14,0,0,1,144.37,72.44Z"/><path class="cls-1" d="M170.72,71.94v-31h4.65v7.63a13.8,13.8,0,0,1,1-2.14,11.82,11.82,0,0,1,5.52-5,11.69,11.69,0,0,1,4.93-1h.31V45.1h-.56a9.66,9.66,0,0,0-6,1.89,12.11,12.11,0,0,0-3.84,4.9,15.6,15.6,0,0,0-1.34,6.41V71.94Z"/><path class="cls-1" d="M204.39,72.44a14.19,14.19,0,0,1-13.15-7.94,18.46,18.46,0,0,1,0-16.15,14.25,14.25,0,0,1,13.15-7.9,13.63,13.63,0,0,1,6.6,1.49,12.56,12.56,0,0,1,4.5,4v-5h4.65v31h-4.65V67a12.78,12.78,0,0,1-4.5,4A13.75,13.75,0,0,1,204.39,72.44Zm.62-4.22a9.84,9.84,0,0,0,9.48-5.92,14.54,14.54,0,0,0,0-11.75A9.91,9.91,0,0,0,205,44.66a10.5,10.5,0,0,0-5.89,1.62,10.4,10.4,0,0,0-3.78,4.27,13.83,13.83,0,0,0,0,11.75,10.32,10.32,0,0,0,3.78,4.31A10.5,10.5,0,0,0,205,68.22Z"/><path class="cls-1" d="M228.2,71.94v-31h4.65v4.84A15.39,15.39,0,0,1,236.94,42a11.24,11.24,0,0,1,6.2-1.55,12.45,12.45,0,0,1,6,1.52,11.78,11.78,0,0,1,4.59,4.52,14.41,14.41,0,0,1,1.77,7.41v18h-4.65V54a9.5,9.5,0,0,0-2.42-6.79,8.19,8.19,0,0,0-6.26-2.58,9.52,9.52,0,0,0-4.71,1.18,8.9,8.9,0,0,0-3.38,3.32,9.43,9.43,0,0,0-1.27,4.93V71.94Z"/><path class="cls-1" d="M265.89,71.94V45h-6.32v-4.1h6.32V29.85h4.65V40.94h7.13V45h-7.13v26.9Z"/><path class="cls-1" d="M297,71.94v-41h4.65V49.13h23.87V30.9h4.65v41h-4.65V53.65H301.6V71.94Z"/><path class="cls-1" d="M352.94,72.44a15.6,15.6,0,0,1-8.25-2.14,14.84,14.84,0,0,1-5.48-5.8,16.72,16.72,0,0,1-2-8.06,17.49,17.49,0,0,1,1.86-8.09,14.29,14.29,0,0,1,5.33-5.76,16.78,16.78,0,0,1,16.4,0,14.29,14.29,0,0,1,5.3,5.76A17.49,17.49,0,0,1,368,56.44V58.3H342a12.47,12.47,0,0,0,1.76,5,10.28,10.28,0,0,0,3.75,3.6A10.91,10.91,0,0,0,353,68.22a9.91,9.91,0,0,0,5.52-1.45A10.3,10.3,0,0,0,362,63h5.08A15.13,15.13,0,0,1,362,69.8,14.59,14.59,0,0,1,352.94,72.44ZM342.09,54h21.08a11.54,11.54,0,0,0-3.35-6.63,9.85,9.85,0,0,0-7.19-2.67,9.73,9.73,0,0,0-7.16,2.67A11.88,11.88,0,0,0,342.09,54Z"/><path class="cls-1" d="M373.71,71.94v-31h4.65v7.63a12.1,12.1,0,0,1,1-2.14,11.6,11.6,0,0,1,10.45-6h.31V45.1h-.56a9.64,9.64,0,0,0-6,1.89,12.14,12.14,0,0,0-3.85,4.9,15.59,15.59,0,0,0-1.33,6.41V71.94Z"/><path class="cls-1" d="M407.75,72.44a15.27,15.27,0,0,1-8.19-2.14,14.33,14.33,0,0,1-5.33-5.8,18.46,18.46,0,0,1,0-16.15,14.29,14.29,0,0,1,5.33-5.76,16.78,16.78,0,0,1,16.4,0,14.36,14.36,0,0,1,5.3,5.76,18.46,18.46,0,0,1,0,16.15,14.4,14.4,0,0,1-5.3,5.8A15.19,15.19,0,0,1,407.75,72.44Zm0-4.22a9.86,9.86,0,0,0,9.48-5.92,14.54,14.54,0,0,0,0-11.75,10.47,10.47,0,0,0-19,0,14.54,14.54,0,0,0,0,11.75,9.94,9.94,0,0,0,9.49,5.92Z"/><rect class="cls-1" width="102" height="102" rx="27.39"/><path class="cls-2" d="M79,48.51a4.92,4.92,0,0,1,4.92,4.92h0q0,13.67-8.75,22.14T52.54,84q-14.77,0-24.47-9.61A31.77,31.77,0,0,1,18.36,51,32.92,32.92,0,0,1,51.81,17.71a33.35,33.35,0,0,1,16.31,4.05,31.56,31.56,0,0,1,7.31,5.46,5.32,5.32,0,0,1-1.1,8.37l-1.77,1a4.87,4.87,0,0,1-5.93-.78A18.54,18.54,0,0,0,62,32.38a21.43,21.43,0,0,0-10.26-2.46,20.11,20.11,0,0,0-15,6A20.58,20.58,0,0,0,30.85,51a20,20,0,0,0,6,14.89q6,5.88,15.81,5.88,7.29,0,12.07-3.23a16.13,16.13,0,0,0,6.52-8.89H56.82A4.92,4.92,0,0,1,51.9,54.7V53.43a4.92,4.92,0,0,1,4.92-4.92Z"/></svg>